<mxfile host="app.diagrams.net" modified="2023-04-24T15:34:50.047Z" agent="5.0 (Windows NT 10.0; Win64; x64) AppleWebKit/537.36 (KHTML, like Gecko) Chrome/112.0.0.0 Safari/537.36" etag="673XczybZ8nSu-badI6M" version="15.5.9" type="github">
  <diagram id="roLysGnBKuMuwjmBP4KN" name="Page-1">
    <mxGraphModel dx="2031" dy="1089" grid="1" gridSize="10" guides="1" tooltips="1" connect="1" arrows="1" fold="1" page="1" pageScale="1" pageWidth="827" pageHeight="1169" math="0" shadow="0">
      <root>
        <mxCell id="0" />
        <mxCell id="1" parent="0" />
        <mxCell id="F0m5bm7QoWoRLn3Skab8-67" value="" style="rounded=0;whiteSpace=wrap;html=1;fillColor=#dae8fc;strokeColor=#6c8ebf;" vertex="1" parent="1">
          <mxGeometry x="290" y="490" width="690" height="340" as="geometry" />
        </mxCell>
        <mxCell id="F0m5bm7QoWoRLn3Skab8-1" value="" style="whiteSpace=wrap;html=1;aspect=fixed;" vertex="1" parent="1">
          <mxGeometry x="220" y="70" width="950.5" height="950.5" as="geometry" />
        </mxCell>
        <mxCell id="F0m5bm7QoWoRLn3Skab8-2" value="Checkout" style="text;html=1;strokeColor=none;fillColor=none;align=center;verticalAlign=middle;whiteSpace=wrap;rounded=0;" vertex="1" parent="1">
          <mxGeometry x="399.5" y="20" width="60" height="30" as="geometry" />
        </mxCell>
        <mxCell id="F0m5bm7QoWoRLn3Skab8-34" value="" style="shape=umlLifeline;participant=umlActor;perimeter=lifelinePerimeter;whiteSpace=wrap;html=1;container=1;collapsible=0;recursiveResize=0;verticalAlign=top;spacingTop=36;outlineConnect=0;" vertex="1" parent="1">
          <mxGeometry x="240" y="130" width="20" height="620" as="geometry" />
        </mxCell>
        <mxCell id="F0m5bm7QoWoRLn3Skab8-35" value="" style="shape=umlLifeline;participant=umlEntity;perimeter=lifelinePerimeter;whiteSpace=wrap;html=1;container=1;collapsible=0;recursiveResize=0;verticalAlign=top;spacingTop=36;outlineConnect=0;" vertex="1" parent="1">
          <mxGeometry x="450" y="130" width="107.5" height="630" as="geometry" />
        </mxCell>
        <mxCell id="F0m5bm7QoWoRLn3Skab8-36" value="/pay" style="ellipse;whiteSpace=wrap;html=1;" vertex="1" parent="F0m5bm7QoWoRLn3Skab8-35">
          <mxGeometry x="-10" y="120" width="110" height="40" as="geometry" />
        </mxCell>
        <mxCell id="F0m5bm7QoWoRLn3Skab8-52" value="/order" style="ellipse;whiteSpace=wrap;html=1;" vertex="1" parent="F0m5bm7QoWoRLn3Skab8-35">
          <mxGeometry x="-10" y="200" width="110" height="40" as="geometry" />
        </mxCell>
        <mxCell id="F0m5bm7QoWoRLn3Skab8-61" value="Generate PDF" style="ellipse;whiteSpace=wrap;html=1;" vertex="1" parent="F0m5bm7QoWoRLn3Skab8-35">
          <mxGeometry x="-5" y="590" width="110" height="40" as="geometry" />
        </mxCell>
        <mxCell id="F0m5bm7QoWoRLn3Skab8-59" value="Confirm" style="ellipse;whiteSpace=wrap;html=1;" vertex="1" parent="F0m5bm7QoWoRLn3Skab8-35">
          <mxGeometry x="-2.5" y="390" width="110" height="40" as="geometry" />
        </mxCell>
        <mxCell id="F0m5bm7QoWoRLn3Skab8-69" value="" style="outlineConnect=0;dashed=0;verticalLabelPosition=bottom;verticalAlign=top;align=center;html=1;shape=mxgraph.aws3.queue;fillColor=#D9A741;gradientColor=none;" vertex="1" parent="F0m5bm7QoWoRLn3Skab8-35">
          <mxGeometry x="8.25" y="470" width="73.5" height="48" as="geometry" />
        </mxCell>
        <mxCell id="F0m5bm7QoWoRLn3Skab8-45" style="edgeStyle=orthogonalEdgeStyle;rounded=0;orthogonalLoop=1;jettySize=auto;html=1;entryX=0;entryY=0.5;entryDx=0;entryDy=0;" edge="1" parent="1" source="F0m5bm7QoWoRLn3Skab8-36" target="F0m5bm7QoWoRLn3Skab8-44">
          <mxGeometry relative="1" as="geometry" />
        </mxCell>
        <mxCell id="F0m5bm7QoWoRLn3Skab8-37" value="" style="shape=umlLifeline;participant=umlEntity;perimeter=lifelinePerimeter;whiteSpace=wrap;html=1;container=1;collapsible=0;recursiveResize=0;verticalAlign=top;spacingTop=36;outlineConnect=0;" vertex="1" parent="1">
          <mxGeometry x="640" y="130" width="90" height="630" as="geometry" />
        </mxCell>
        <mxCell id="F0m5bm7QoWoRLn3Skab8-55" value="/register" style="ellipse;whiteSpace=wrap;html=1;" vertex="1" parent="F0m5bm7QoWoRLn3Skab8-37">
          <mxGeometry x="-10" y="295" width="110" height="40" as="geometry" />
        </mxCell>
        <mxCell id="F0m5bm7QoWoRLn3Skab8-38" value="" style="shape=umlLifeline;participant=umlEntity;perimeter=lifelinePerimeter;whiteSpace=wrap;html=1;container=1;collapsible=0;recursiveResize=0;verticalAlign=top;spacingTop=36;outlineConnect=0;" vertex="1" parent="1">
          <mxGeometry x="820" y="130" width="90" height="630" as="geometry" />
        </mxCell>
        <mxCell id="F0m5bm7QoWoRLn3Skab8-49" style="edgeStyle=orthogonalEdgeStyle;rounded=0;orthogonalLoop=1;jettySize=auto;html=1;" edge="1" parent="F0m5bm7QoWoRLn3Skab8-38" source="F0m5bm7QoWoRLn3Skab8-44" target="F0m5bm7QoWoRLn3Skab8-38">
          <mxGeometry relative="1" as="geometry">
            <Array as="points">
              <mxPoint x="30" y="200" />
              <mxPoint x="30" y="200" />
            </Array>
          </mxGeometry>
        </mxCell>
        <mxCell id="F0m5bm7QoWoRLn3Skab8-51" value="" style="edgeStyle=orthogonalEdgeStyle;rounded=0;orthogonalLoop=1;jettySize=auto;html=1;" edge="1" parent="F0m5bm7QoWoRLn3Skab8-38" source="F0m5bm7QoWoRLn3Skab8-44" target="F0m5bm7QoWoRLn3Skab8-50">
          <mxGeometry relative="1" as="geometry" />
        </mxCell>
        <mxCell id="F0m5bm7QoWoRLn3Skab8-44" value="Check Customer" style="ellipse;whiteSpace=wrap;html=1;" vertex="1" parent="F0m5bm7QoWoRLn3Skab8-38">
          <mxGeometry x="-10" y="120" width="100" height="40" as="geometry" />
        </mxCell>
        <mxCell id="F0m5bm7QoWoRLn3Skab8-50" value="Payment" style="ellipse;whiteSpace=wrap;html=1;" vertex="1" parent="F0m5bm7QoWoRLn3Skab8-38">
          <mxGeometry x="-10" y="200" width="100" height="40" as="geometry" />
        </mxCell>
        <mxCell id="F0m5bm7QoWoRLn3Skab8-57" value="Confirm Payment" style="ellipse;whiteSpace=wrap;html=1;" vertex="1" parent="F0m5bm7QoWoRLn3Skab8-38">
          <mxGeometry x="-20" y="390" width="110" height="40" as="geometry" />
        </mxCell>
        <mxCell id="F0m5bm7QoWoRLn3Skab8-39" value="Portal" style="text;html=1;strokeColor=none;fillColor=none;align=center;verticalAlign=middle;whiteSpace=wrap;rounded=0;" vertex="1" parent="1">
          <mxGeometry x="440" y="80" width="60" height="30" as="geometry" />
        </mxCell>
        <mxCell id="F0m5bm7QoWoRLn3Skab8-40" value="Text" style="text;html=1;strokeColor=none;fillColor=none;align=center;verticalAlign=middle;whiteSpace=wrap;rounded=0;" vertex="1" parent="1">
          <mxGeometry x="230" y="90" width="60" height="30" as="geometry" />
        </mxCell>
        <mxCell id="F0m5bm7QoWoRLn3Skab8-41" value="EPP" style="text;html=1;strokeColor=none;fillColor=none;align=center;verticalAlign=middle;whiteSpace=wrap;rounded=0;" vertex="1" parent="1">
          <mxGeometry x="630" y="80" width="60" height="30" as="geometry" />
        </mxCell>
        <mxCell id="F0m5bm7QoWoRLn3Skab8-43" value="Stripe" style="text;html=1;strokeColor=none;fillColor=none;align=center;verticalAlign=middle;whiteSpace=wrap;rounded=0;" vertex="1" parent="1">
          <mxGeometry x="800" y="80" width="60" height="30" as="geometry" />
        </mxCell>
        <mxCell id="F0m5bm7QoWoRLn3Skab8-47" value="Check if customer is available. if not then create stripe customer" style="text;html=1;strokeColor=none;fillColor=none;align=center;verticalAlign=middle;whiteSpace=wrap;rounded=0;" vertex="1" parent="1">
          <mxGeometry x="880" y="220" width="130" height="30" as="geometry" />
        </mxCell>
        <mxCell id="F0m5bm7QoWoRLn3Skab8-46" value="payment_intent" style="text;html=1;strokeColor=none;fillColor=none;align=center;verticalAlign=middle;whiteSpace=wrap;rounded=0;" vertex="1" parent="1">
          <mxGeometry x="520" y="220" width="60" height="30" as="geometry" />
        </mxCell>
        <mxCell id="F0m5bm7QoWoRLn3Skab8-53" style="edgeStyle=orthogonalEdgeStyle;rounded=0;orthogonalLoop=1;jettySize=auto;html=1;entryX=1;entryY=0.5;entryDx=0;entryDy=0;" edge="1" parent="1" source="F0m5bm7QoWoRLn3Skab8-50" target="F0m5bm7QoWoRLn3Skab8-52">
          <mxGeometry relative="1" as="geometry" />
        </mxCell>
        <mxCell id="F0m5bm7QoWoRLn3Skab8-54" value="Update transaction table and cart item" style="text;html=1;strokeColor=none;fillColor=none;align=center;verticalAlign=middle;whiteSpace=wrap;rounded=0;" vertex="1" parent="1">
          <mxGeometry x="520" y="380" width="130" height="30" as="geometry" />
        </mxCell>
        <mxCell id="F0m5bm7QoWoRLn3Skab8-56" style="edgeStyle=orthogonalEdgeStyle;rounded=0;orthogonalLoop=1;jettySize=auto;html=1;" edge="1" parent="1" source="F0m5bm7QoWoRLn3Skab8-52" target="F0m5bm7QoWoRLn3Skab8-55">
          <mxGeometry relative="1" as="geometry">
            <Array as="points">
              <mxPoint x="675" y="370" />
            </Array>
          </mxGeometry>
        </mxCell>
        <mxCell id="F0m5bm7QoWoRLn3Skab8-60" style="edgeStyle=orthogonalEdgeStyle;rounded=0;orthogonalLoop=1;jettySize=auto;html=1;" edge="1" parent="1" source="F0m5bm7QoWoRLn3Skab8-59" target="F0m5bm7QoWoRLn3Skab8-57">
          <mxGeometry relative="1" as="geometry" />
        </mxCell>
        <mxCell id="F0m5bm7QoWoRLn3Skab8-62" style="edgeStyle=orthogonalEdgeStyle;rounded=0;orthogonalLoop=1;jettySize=auto;html=1;" edge="1" parent="1" source="F0m5bm7QoWoRLn3Skab8-57" target="F0m5bm7QoWoRLn3Skab8-69">
          <mxGeometry relative="1" as="geometry">
            <Array as="points">
              <mxPoint x="855" y="580" />
              <mxPoint x="553" y="580" />
              <mxPoint x="553" y="620" />
              <mxPoint x="539" y="620" />
              <mxPoint x="539" y="624" />
            </Array>
          </mxGeometry>
        </mxCell>
        <mxCell id="F0m5bm7QoWoRLn3Skab8-63" value="Send Notification" style="ellipse;whiteSpace=wrap;html=1;" vertex="1" parent="1">
          <mxGeometry x="450" y="820" width="110" height="40" as="geometry" />
        </mxCell>
        <mxCell id="F0m5bm7QoWoRLn3Skab8-71" value="" style="edgeStyle=orthogonalEdgeStyle;rounded=0;orthogonalLoop=1;jettySize=auto;html=1;" edge="1" parent="1" source="F0m5bm7QoWoRLn3Skab8-61" target="F0m5bm7QoWoRLn3Skab8-63">
          <mxGeometry relative="1" as="geometry" />
        </mxCell>
      </root>
    </mxGraphModel>
  </diagram>
</mxfile>
